<svg width="170" height="228" viewBox="0 0 170 228" fill="none" xmlns="http://www.w3.org/2000/svg">
<g id="Layer_3" clip-path="url(#clip0_4572_2669)">
<path id="Vector" d="M162.505 4.5393C160.603 2.83333 157.95 2.50248 155.637 3.62945C153.406 4.47727 151.093 5.97645 148.748 8.09599C148.09 8.69566 147.402 9.39873 146.713 10.1018C146.682 10.1328 146.631 10.2052 146.61 10.2362L134.108 24.008C134.057 24.039 134.005 24.0804 133.964 24.1321L112.497 47.478C109.824 50.373 107.161 53.2679 104.488 56.1629C100.488 60.5157 96.489 64.8582 92.4484 69.2006C78.4557 85.2264 64.5555 101.511 51.1385 117.578C48.3317 120.793 46.4297 122.892 45.1651 124.174C45.0931 124.247 45.0109 124.391 44.9698 124.495L44.8464 124.795C44.8156 124.867 44.7641 124.97 44.6922 125.043C44.4043 125.301 44.1576 125.498 43.9931 125.591C43.8594 125.663 43.7977 125.663 43.7257 125.663C43.6846 125.663 43.6435 125.663 43.5921 125.663C43.551 125.642 43.4996 125.622 43.4482 125.611C43.1808 125.539 43.0883 125.508 42.9649 125.311C42.8518 125.136 42.7285 124.867 42.5537 124.443C42.5537 124.412 42.5537 124.319 42.5537 124.257V124.153C42.564 123.926 42.5948 123.678 42.6257 123.45L42.7387 122.933C42.7902 122.696 42.7387 122.458 42.5845 122.272C42.4303 122.086 42.1938 121.972 41.9677 121.982C41.7312 121.962 41.6078 121.889 41.2788 121.569C41.1349 121.434 40.9395 121.352 40.7442 121.352C40.4563 121.352 40.3946 121.352 40.2198 120.876C39.9525 120.173 39.6235 118.591 39.5516 115.034C39.2843 107.476 38.7599 100.694 37.9477 94.2835C36.9093 86.3327 35.6036 79.881 33.8249 73.9877C33.6604 73.4604 33.4754 72.9331 33.3006 72.4161L33.0024 71.5683C32.7043 70.6895 32.437 69.9037 32.0977 69.1489L31.1004 66.7709L29.9695 64.5997C29.6919 63.9897 29.3423 63.4624 29.003 62.9558C28.8797 62.78 28.7666 62.5939 28.6123 62.3561C28.1703 61.6737 27.7179 60.9706 27.1833 60.3296C25.9804 58.8201 24.8391 57.6828 23.6979 56.835C22.3305 55.8114 20.7883 55.1807 19.4723 55.1083C18.0227 55.0359 16.4702 55.5426 15.3084 56.4938C14.1158 57.4553 13.3653 58.7787 13.1494 60.2986C12.9232 61.7564 13.1494 63.3693 13.4475 65.189C13.6532 66.4608 13.8691 67.7428 14.085 69.0145L14.3112 70.338C15.0514 74.1014 15.6991 78.02 16.2646 82.0006C17.5703 89.848 18.948 98.2435 20.1098 106.504C21.2407 114.548 22.0529 121.155 22.6595 127.297C23.225 133.479 23.739 139.538 23.7802 145.752L23.8213 146.352C23.8419 146.59 23.8521 146.827 23.8624 147.065C23.9241 148.12 23.955 149.174 23.9961 150.229C24.0166 150.973 24.0475 151.707 24.0783 152.452C24.14 154.147 24.1811 155.957 23.8933 157.684C23.6979 158.511 23.4923 158.769 23.3998 158.8C23.2044 158.862 23.0399 158.997 22.9474 159.183C21.1379 162.719 19.5752 166.327 18.0124 170.018L17.3544 171.61C16.7787 172.996 16.1721 174.423 15.6272 175.86L14.4654 178.827L13.9513 180.254L13.2933 181.608C13.1185 181.888 13.0671 181.96 12.1418 181.495C11.638 181.247 11.2988 181.04 11.2885 180.874C11.2885 180.616 11.1446 180.378 10.9286 180.233C10.7333 180.109 10.5277 179.975 10.3118 179.83C9.79771 179.489 8.42003 178.569 8.60509 178.207C8.75931 177.907 8.69762 177.535 8.45087 177.297C8.20412 177.059 7.84428 177.018 7.54612 177.173L3.59813 179.354C3.33082 179.51 3.16632 179.809 3.20745 180.12C3.24857 180.512 3.29998 180.957 3.36167 181.505C3.91685 185.124 5.94225 188.422 8.14243 191.762C10.2604 195.008 12.6353 198.099 15.1954 200.953C20.3154 206.65 26.3505 211.52 33.1258 215.438C35.8915 217.041 38.8216 218.488 42.1116 219.874C44.5482 220.804 46.954 221.611 49.2879 222.272C50.2543 222.531 50.6861 222.81 50.8712 223.007C50.9637 223.1 51.0768 223.172 51.2002 223.203C52.4545 223.586 53.5032 223.875 54.4799 224.113C56.5876 224.619 58.4073 224.919 60.0626 225.023C60.4944 225.043 60.8954 225.054 61.2861 225.054C62.9311 225.054 64.2676 224.847 65.3574 224.444C66.9819 223.865 68.2053 222.789 68.9867 221.228C69.6755 219.832 70.0354 218.095 70.0662 216.059C70.0765 214.952 70.1279 213.763 70.3438 213.267C70.3747 213.205 70.3952 213.143 70.4055 213.071C70.5803 212.947 71.1663 212.657 73.2328 212.14C73.4282 212.088 73.6133 212.037 73.7983 211.975L74.1581 211.871C74.261 211.84 74.3535 211.789 74.4358 211.726L76.163 210.31C77.0061 209.648 77.8183 208.925 78.5996 208.232C79.0315 207.849 79.4735 207.467 79.9156 207.074C82.5374 204.737 84.9123 202.535 87.1536 200.322C91.9755 195.639 96.5712 190.676 100.869 186.003C105.207 181.257 109.567 176.191 113.833 170.938C114.882 169.656 115.931 168.364 116.938 167.051C117.308 166.565 117.689 166.089 118.069 165.614C118.717 164.797 119.375 163.97 120.002 163.143L126.037 155.202C126.767 154.106 127.261 153.62 127.559 153.403C127.621 153.351 127.682 153.3 127.723 153.238C127.939 152.938 128.155 152.648 128.371 152.359C128.721 151.883 129.08 151.408 129.42 150.922C130.376 149.567 131.27 148.182 132.083 146.786C133.46 144.408 134.478 142.309 135.198 140.396C135.229 140.314 135.239 140.231 135.249 140.148C135.27 139.528 135.28 138.897 135.28 138.277C135.28 136.416 135.044 134.431 134.56 132.228C134.149 130.388 133.553 128.486 132.72 126.418C132.36 125.498 131.959 124.588 131.548 123.657L131.394 123.306C131.27 123.027 131.003 122.851 130.705 122.84C130.407 122.84 130.129 122.995 129.995 123.275C129.276 124.712 128.392 126.118 127.353 127.452C125.102 130.347 122.398 132.714 119.838 134.824C119.036 135.444 118.974 135.361 118.45 134.699C117.946 134.058 117.864 133.955 118.614 133.335C121.041 131.412 123.806 129.085 125.996 126.376C127.096 125.012 128.011 123.606 128.721 122.179C129.08 121.445 129.399 120.68 129.687 119.883C129.924 119.201 130.109 118.415 130.242 117.505C130.283 117.247 130.304 116.988 130.335 116.73C130.335 116.72 130.345 116.606 130.345 116.596C130.386 115.593 130.366 114.528 130.273 113.463C130.15 111.715 129.769 109.916 129.132 108.086C128.536 106.432 127.754 104.923 126.808 103.599C126.747 103.516 126.685 103.454 126.603 103.403C125.78 102.472 124.721 101.914 123.611 101.81C123.004 101.748 122.387 101.81 121.842 101.986C121.39 102.121 120.907 102.389 120.609 102.679C120.516 102.741 120.434 102.824 120.372 102.927C120.043 103.475 119.714 104.013 119.385 104.54C118.347 106.215 117.288 107.838 116.229 109.358C115.057 111.043 113.905 112.543 112.702 113.959C112.096 114.683 111.438 115.407 110.749 116.11C110.112 116.782 109.443 117.474 108.672 118.043C107.665 118.818 107.552 118.674 107.12 118.146C106.678 117.619 106.565 117.474 107.408 116.606C107.778 116.192 108.179 115.81 108.58 115.427C108.826 115.189 109.083 114.952 109.32 114.703C109.988 114.042 110.636 113.349 111.243 112.677C112.435 111.343 113.576 109.916 114.759 108.303C115.9 106.742 116.938 105.119 117.905 103.599C118.84 102.121 119.601 100.89 120.28 99.5669C120.321 99.4842 120.352 99.3808 120.362 99.2877C120.383 99.0913 120.413 98.7914 120.362 98.5743L120.249 97.3543L120.033 96.186C119.683 94.6247 119.097 93.0635 118.295 91.554C117.535 90.0858 116.578 88.628 115.437 87.2012C115.18 86.9013 114.933 86.5808 114.676 86.25C114.389 85.8778 114.101 85.5056 113.803 85.1644C113.587 84.9059 113.36 84.6474 113.093 84.3579C113.062 84.3269 113.031 84.2959 112.99 84.2649C112.888 84.1925 112.795 84.1098 112.692 84.0271C112.538 83.8926 112.322 83.8203 112.116 83.8409C111.911 83.8616 111.715 83.965 111.582 84.1304L103.172 94.8315C100.622 98.0987 98.6275 100.415 97.2087 101.728C97.1778 101.759 97.147 101.79 97.1264 101.821L95.358 104.106C95.173 104.344 95.0188 104.561 94.8234 104.705C94.8131 104.705 94.7206 104.778 94.7103 104.788C94.5561 104.788 94.1037 104.406 93.9289 104.271C93.7542 104.126 93.2915 103.744 93.271 103.609L93.3326 103.475C93.4354 103.258 93.6102 103.062 93.8158 102.834L99.5322 96.0619C99.964 95.5346 100.406 95.0176 100.848 94.511L101.362 93.9113L144.307 39.217L160.325 18.8694C161.353 17.608 162.073 16.5741 162.731 15.4368C163.471 14.1548 164.006 12.8934 164.294 11.7664C165.188 9.1816 164.489 6.36934 162.515 4.60134L162.505 4.5393Z" fill="#F6EFEC"/>
<g id="Group">
<path id="Vector_2" d="M38.8833 115.055C38.6366 108.138 38.1533 101.221 37.2794 94.3664C36.385 87.5218 35.1512 80.7187 33.1772 74.1843C32.9202 73.3675 32.6323 72.5817 32.3547 71.7752C32.0874 70.9688 31.8098 70.1623 31.4603 69.3972L30.4835 67.0709L29.332 64.8583C28.9825 64.0932 28.489 63.4419 28.0469 62.7595C27.6048 62.0771 27.1627 61.3844 26.6281 60.7433C25.6 59.4613 24.4896 58.2723 23.2661 57.3727C22.0632 56.4732 20.665 55.8529 19.4107 55.7908C18.1255 55.7185 16.7478 56.1837 15.7094 57.0212C14.6607 57.8587 13.9925 59.0374 13.7971 60.3918C13.5915 61.7772 13.8177 63.3591 14.0953 65.0651C16.3571 78.7956 18.8041 92.557 20.7472 106.401C21.7239 113.318 22.5978 120.256 23.3278 127.224C23.9961 134.193 24.6232 141.182 24.4896 148.223C24.4587 149.092 24.4279 149.847 24.4073 150.519C24.3354 151.18 24.284 151.759 24.2223 152.266C24.0989 153.258 23.9858 153.941 23.8727 154.396C23.6465 155.316 23.4203 155.357 23.1736 155.347C22.9268 155.337 22.7007 155.254 22.5362 154.334C22.4539 153.868 22.3819 153.196 22.3305 152.214C22.31 151.718 22.2894 151.149 22.2688 150.498C22.2277 149.836 22.1866 149.092 22.1455 148.234C21.8987 141.327 21.4566 134.4 20.7164 127.493C19.9967 120.587 19.0097 113.69 17.961 106.815C15.8636 93.0533 13.2625 79.3746 10.8258 65.6131C10.5277 63.8968 10.1884 61.984 10.4866 59.8955C10.7642 57.7863 11.9259 55.7288 13.6018 54.3951C15.2673 53.051 17.3853 52.3169 19.5649 52.4203C21.7856 52.5547 23.6568 53.4955 25.2401 54.6432C28.3759 57.0109 30.4321 60.0299 32.2725 63.2144L33.5371 65.6338L34.5858 68.1255C34.9559 68.9526 35.2438 69.7901 35.5316 70.6379C35.8195 71.4858 36.1279 72.3232 36.3952 73.171C38.4721 79.9846 39.7366 86.9532 40.662 93.9321C41.5564 100.911 42.0705 107.921 42.3378 114.941C42.3789 116.668 42.3892 117.981 42.2967 118.984C42.1939 119.987 42.0602 120.669 41.8957 121.124C41.5873 122.055 41.176 122.117 40.7339 122.117C40.2815 122.117 39.8806 122.055 39.5413 121.145C39.2123 120.235 38.9244 118.467 38.8422 115.055H38.8833Z" fill="#0000E6"/>
<path id="Vector_3" d="M41.9059 119.552C41.7722 114.713 41.3404 109.864 40.7338 105.036C40.1169 100.208 39.315 95.3998 38.328 90.6334C37.3718 85.8671 36.2203 81.1317 34.7707 76.5101C34.051 74.1941 33.2285 71.9195 32.2724 69.7069C31.7583 68.6213 31.3059 67.5046 30.7405 66.45C30.1544 65.4161 29.6404 64.3305 29.0749 63.2862C28.0057 61.1977 28.2627 60.8669 28.6637 60.567C29.0646 60.2672 29.4245 60.0811 31.0386 62.0145C32.5602 64.0513 33.6192 66.357 34.6679 68.6316C35.6549 70.9269 36.6213 73.2325 37.4335 75.5899C39.0888 80.2839 40.4254 85.0813 41.5666 89.92C42.6358 94.7691 43.4583 99.6595 44.1163 104.581C44.764 109.502 45.237 114.445 45.4015 119.438C45.4632 120.669 45.1959 121.31 44.8771 121.641C44.5584 121.972 44.1575 121.992 43.7051 121.992C43.2527 121.992 42.8517 121.972 42.5227 121.651C42.1937 121.331 41.9059 120.72 41.9059 119.531V119.552Z" fill="#0000E6"/>
<path id="Vector_4" d="M21.5695 157.631C21.5387 155.884 21.6209 154.147 21.7134 152.389C21.7957 150.631 21.7648 148.863 21.7134 147.095C21.6312 143.559 21.4358 140.023 21.1891 136.487C20.9012 132.951 20.5414 129.415 20.1507 125.89C19.7086 122.364 19.4002 118.828 19.03 115.292C18.845 113.545 19.2871 113.421 19.8525 113.338C20.4077 113.255 20.8704 113.255 21.1685 114.992C21.7751 118.518 22.3509 122.044 22.7004 125.6C23.1014 129.147 23.451 132.714 23.7594 136.27C24.0884 139.837 24.3557 143.404 24.5305 146.992C24.623 148.781 24.6436 150.59 24.7258 152.389C24.7978 154.199 24.7978 156.008 24.5408 157.828C24.1912 159.606 23.6155 159.606 22.9163 159.544C22.2172 159.482 21.6518 159.347 21.5592 157.631H21.5695Z" fill="#0000E6"/>
<path id="Vector_5" d="M101.075 93.0941L143.762 38.7306L154.444 25.1552L159.791 18.3727C160.726 17.2147 161.456 16.1911 162.135 15.0228C162.793 13.8751 163.327 12.6758 163.646 11.4661C165.353 6.59634 160.634 1.9437 155.884 4.27002C153.499 5.16953 151.216 6.78244 149.211 8.60214C148.235 9.49131 147.206 10.5873 146.199 11.5902L143.166 14.6506C127.138 31.1106 111.747 48.253 96.5406 65.5401C88.9531 74.194 81.417 82.8996 73.9322 91.6466C66.4681 100.414 59.0862 109.254 51.7145 118.094C44.2401 126.634 43.7054 126.727 43.2531 126.355C42.811 125.993 42.7699 125.425 49.7611 116.461C57.0813 107.559 64.5146 98.7496 71.9685 89.9613C79.4018 81.1626 86.8969 72.395 94.4433 63.6894C109.567 46.2885 124.865 29.0427 140.873 12.407L143.906 9.31554C144.934 8.28162 145.87 7.25804 147.011 6.20344C149.252 4.16662 151.73 2.34692 154.722 1.17859C156.213 0.620278 157.899 0.227389 159.698 0.423833C160.151 0.46519 160.593 0.547904 161.045 0.692653C161.497 0.796045 161.919 1.00283 162.34 1.21995C163.142 1.66454 163.79 2.10912 164.448 2.71914C165.733 3.87713 166.72 5.5314 167.09 7.27872C167.471 9.02605 167.296 10.7734 166.895 12.3449C166.484 13.9372 165.826 15.3847 165.055 16.7391C164.294 18.0728 163.338 19.3963 162.454 20.4715L157.107 27.2747L146.425 40.8708L103.707 95.2446C100.221 99.7215 98.1959 101.872 96.9827 102.854C95.7901 103.847 95.4405 103.702 95.1218 103.444C94.8031 103.185 94.5769 102.875 95.2658 101.469C95.9443 100.063 97.5482 97.5813 101.075 93.1251V93.0941Z" fill="#0000E6"/>
<path id="Vector_6" d="M106.904 116.109C107.521 115.427 108.209 114.817 108.857 114.165C109.505 113.524 110.142 112.852 110.749 112.17C111.972 110.795 113.124 109.358 114.224 107.858C115.314 106.359 116.342 104.788 117.349 103.195C118.367 101.583 119.344 100.042 120.084 98.4188C120.835 96.7955 121.39 95.1205 121.637 93.4042C121.76 92.5461 121.822 91.6879 121.801 90.8194C121.791 90.3852 121.76 89.9509 121.709 89.527C121.657 89.0928 121.596 88.7516 121.482 88.3587C121.061 86.8078 120.146 85.2776 118.994 84.0369C118.398 83.4476 117.75 82.91 117.062 82.5584C116.373 82.2069 115.704 82.0828 115.16 82.0932C114.872 82.0725 114.687 82.1966 114.481 82.1759C114.296 82.2276 114.142 82.2586 113.998 82.2379C113.71 82.2172 113.484 82.0621 113.268 81.8554C113.052 81.6589 112.857 81.4831 112.939 81.1213C112.98 80.9455 113.093 80.7077 113.329 80.4286C113.617 80.2218 114.008 79.8289 114.656 79.7048C115.982 79.3326 117.247 79.7462 118.223 80.2528C119.231 80.7697 120.043 81.4728 120.804 82.2069C122.295 83.6854 123.498 85.4431 124.186 87.5419C124.351 88.0485 124.474 88.6585 124.546 89.1652C124.618 89.6821 124.67 90.1991 124.701 90.716C124.752 91.75 124.711 92.8046 124.587 93.8281C124.32 95.896 123.672 97.8708 122.84 99.7112C122.007 101.562 120.948 103.247 119.961 104.86C118.953 106.494 117.894 108.117 116.784 109.709C115.674 111.301 114.491 112.863 113.216 114.362C112.579 115.106 111.921 115.84 111.242 116.543C110.564 117.257 109.875 117.96 109.083 118.549C107.541 119.738 107.058 119.242 106.534 118.601C105.999 117.96 105.639 117.402 106.904 116.109Z" fill="#0000E6"/>
<path id="Vector_7" d="M118.192 132.745C120.865 130.625 123.415 128.444 125.471 125.89C126.499 124.618 127.394 123.264 128.113 121.827C128.463 121.103 128.771 120.369 129.049 119.604C129.296 118.89 129.46 118.146 129.573 117.35C129.81 115.768 129.81 114.114 129.717 112.459C129.635 110.805 129.45 109.14 129.049 107.528C128.669 105.915 128.144 104.333 127.445 102.896C127.106 102.161 126.664 101.52 126.263 100.89C125.841 100.269 125.348 99.7214 124.793 99.3595C124.248 99.0183 123.96 98.8529 123.795 98.6461C123.631 98.4394 123.621 98.1912 123.631 97.9224C123.641 97.6536 123.662 97.4158 123.95 97.2607C124.227 97.1056 124.854 97.0229 125.81 97.4675C127.723 98.4497 128.905 100.104 129.707 101.769C130.53 103.433 131.105 105.17 131.537 106.928C132.39 110.433 132.894 114.031 132.432 117.743C132.318 118.673 132.133 119.624 131.825 120.555C131.527 121.434 131.188 122.302 130.797 123.14C130.005 124.815 129.008 126.386 127.887 127.823C125.636 130.708 122.942 133.096 120.248 135.309C118.891 136.364 118.398 135.826 117.843 135.123C117.287 134.42 116.897 133.81 118.192 132.734V132.745Z" fill="#0000E6"/>
<path id="Vector_8" d="M126.038 154.437C126.891 153.062 127.909 151.81 128.844 150.487C129.78 149.164 130.664 147.799 131.476 146.403C133.09 143.611 134.55 140.675 135.311 137.687C135.99 134.73 135.969 131.401 135.579 128.258C135.363 126.676 135.044 125.115 134.53 123.657C134.047 122.199 133.245 120.876 132.319 120.017C131.435 119.263 131.445 118.797 131.589 118.26C131.661 117.981 131.733 117.743 132.052 117.619C132.361 117.484 133.019 117.433 133.851 118.063C134.705 118.663 135.301 119.469 135.794 120.266C136.278 121.072 136.658 121.899 136.987 122.737C137.635 124.412 138.036 126.128 138.313 127.855C138.581 129.581 138.725 131.318 138.735 133.065C138.735 134.813 138.632 136.57 138.252 138.37C137.45 141.895 135.959 145.018 134.314 148.037C133.481 149.536 132.587 151.004 131.641 152.42C130.685 153.837 129.718 155.274 128.443 156.453C127.251 157.683 126.716 157.27 126.13 156.732C125.534 156.184 125.123 155.719 126.048 154.437H126.038Z" fill="#0000E6"/>
<path id="Vector_9" d="M10.6408 180.429L11.268 179.013L12.0185 177.638L13.4065 174.825C14.3318 172.944 15.1543 171.01 16.0488 169.097C17.7966 165.262 19.6883 161.477 21.6417 157.714C21.8474 157.228 22.2278 157.125 22.5259 157.135C22.8138 157.135 23.0297 157.238 23.2764 157.373C23.5232 157.507 23.7288 157.631 23.8933 157.869C24.0681 158.117 24.2018 158.489 23.9139 158.924C22.9372 160.764 22.0221 162.625 21.1688 164.527C20.3052 166.42 19.4724 168.332 18.6499 170.255C17.848 172.189 16.9946 174.102 16.2441 176.066L15.0926 179.013L14.5374 180.512L13.8383 181.949C13.2625 182.849 12.5943 182.549 11.782 182.145C10.9698 181.742 10.3324 181.38 10.6511 180.409L10.6408 180.429Z" fill="#0000E6"/>
<path id="Vector_10" d="M11.2679 176.997C11.6997 176.222 12.1624 175.477 12.553 174.681C13.0157 173.927 13.4372 173.151 13.8485 172.376C14.6607 170.804 15.3495 169.16 15.9973 167.506C17.2721 164.177 18.146 160.692 18.8349 157.167C19.5032 153.631 19.9452 150.043 20.2537 146.445C20.5004 142.837 20.6752 139.207 20.593 135.578C20.5416 134.689 20.8294 134.214 21.0967 133.976C21.3435 133.728 21.5902 133.707 21.8678 133.707C22.1454 133.707 22.3922 133.707 22.6492 133.955C22.9165 134.193 23.2147 134.658 23.1736 135.568L23.1941 138.339L23.1324 141.11C23.1324 142.961 22.9988 144.801 22.9268 146.652C22.6698 150.343 22.2894 154.034 21.6519 157.704C21.0351 161.375 20.0789 164.993 18.9377 168.571L17.9918 171.228C17.632 172.096 17.303 172.986 16.9123 173.844C16.5422 174.712 16.1618 175.581 15.7402 176.429C15.2981 177.266 14.7944 178.062 14.3111 178.879C13.2008 180.388 12.553 180.027 11.8025 179.52C11.052 179.013 10.4762 178.548 11.2987 177.018L11.2679 176.997Z" fill="#0000E6"/>
<path id="Vector_11" d="M77.0259 209.823C79.5242 207.921 82.0843 205.946 84.4489 203.703C86.8342 201.49 89.1372 199.153 91.3888 196.755C95.8714 191.947 100.118 186.881 104.312 181.773C108.497 176.655 112.609 171.465 116.639 166.213C120.67 160.96 124.72 155.708 129.039 150.652C131.383 148.336 131.681 148.44 131.979 148.677C132.277 148.925 132.411 149.194 130.673 151.976C126.736 157.29 122.736 162.573 118.665 167.805C114.593 173.036 110.574 178.32 106.451 183.531C102.318 188.731 98.1024 193.88 93.6609 198.864C91.4505 201.366 89.1783 203.827 86.7725 206.184C85.5696 207.363 84.3461 208.521 83.061 209.648C81.8478 210.847 80.3879 211.777 78.9485 212.749C78.1877 213.173 77.6325 213.504 77.1082 213.607C76.5838 213.701 76.2137 213.721 75.9361 213.69C75.3912 213.618 75.2267 213.328 75.0622 212.987C74.8977 212.646 74.7846 212.336 75.0108 211.85C75.237 211.374 75.7305 210.671 77.0053 209.823H77.0259Z" fill="#0000E6"/>
<path id="Vector_12" d="M134.458 152.151L128.145 161.033L124.979 165.458C124.454 166.192 123.909 166.947 123.344 167.691C122.789 168.425 122.223 169.159 121.647 169.873C119.365 172.747 117.041 175.539 114.687 178.32C113.515 179.716 112.322 181.08 111.109 182.445L109.289 184.482C108.724 185.195 107.953 185.733 107.367 186.436C104.838 189.114 102.411 191.73 100.047 194.47C97.6614 197.199 95.2658 199.96 92.7058 202.596C91.4207 203.909 90.0841 205.202 88.6447 206.411C87.1848 207.621 85.6118 208.686 83.9668 209.596C80.6871 211.447 77.1092 212.615 73.5005 213.432C71.7218 213.825 70.7657 213.835 70.2516 213.742C69.7479 213.639 69.6759 213.401 69.6245 213.132C69.5319 212.563 69.6245 212.201 72.9967 211.354C76.4204 210.464 79.7104 209.141 82.7433 207.425C84.2547 206.567 85.694 205.574 87.01 204.457C88.3363 203.33 89.6112 202.079 90.8449 200.787C93.3124 198.202 95.6565 195.452 98.0315 192.702C99.2138 191.327 100.406 189.941 101.64 188.587C102.895 187.212 104.087 185.95 105.228 184.523C109.711 178.847 114.523 173.409 118.923 167.712C119.478 166.998 120.023 166.295 120.547 165.582C121.072 164.879 121.575 164.155 122.11 163.4L125.246 158.944L131.559 150.063C133.615 147.137 134.396 147.53 135.147 148.078C135.897 148.615 136.524 149.225 134.437 152.131L134.458 152.151Z" fill="#0000E6"/>
<path id="Vector_13" d="M130.304 152.1C132.175 149.588 133.861 146.931 135.352 144.17C136.082 142.785 136.884 141.368 137.213 140.127C137.542 138.887 137.45 137.47 137.213 135.971C136.658 132.828 136.154 129.664 135.352 126.614C134.561 123.574 133.563 120.555 132.103 118.032C131.414 116.812 131.682 116.471 132.103 116.068C132.309 115.872 132.504 115.706 132.813 115.737C132.967 115.758 133.142 115.82 133.368 115.965C133.604 116.109 133.861 116.326 134.098 116.688C135.105 118.136 135.835 119.666 136.391 121.238C136.966 122.799 137.439 124.381 137.84 125.963C138.642 129.137 139.341 132.29 139.979 135.454C140.308 137.098 140.513 138.969 140.03 140.861C139.794 141.782 139.434 142.619 139.074 143.384C138.704 144.139 138.344 144.852 137.953 145.586C136.421 148.481 134.674 151.273 132.741 153.92C132.504 154.251 132.278 154.447 132.062 154.602C131.826 154.799 131.466 154.974 131.127 154.985C130.787 155.005 130.561 154.861 130.489 154.695C130.407 154.53 130.407 154.344 130.407 154.158C130.407 154.023 130.407 153.899 130.407 153.785C130.407 153.775 130.427 153.765 130.335 153.589C130.284 153.496 130.201 153.372 129.965 153.124C129.841 153 129.883 153.01 129.883 152.907C129.934 152.7 130.078 152.41 130.304 152.11V152.1Z" fill="#0000E6"/>
<path id="Vector_14" d="M132.082 122.013C131.938 119.511 131.63 116.947 131.27 114.414C130.89 111.891 130.489 109.348 129.81 106.918C129.491 105.708 129.101 104.498 128.618 103.465C128.504 103.196 128.371 102.948 128.237 102.772C128.134 102.586 127.939 102.348 127.744 102.089C127.363 101.604 126.962 101.128 126.541 100.652C124.865 98.7912 123.035 96.9715 121.328 94.9864C120.475 94.0145 120.67 93.7561 120.948 93.4666C121.236 93.1771 121.482 92.991 122.449 93.8078C124.454 95.4103 126.5 97.0232 128.34 98.967C128.803 99.4426 129.255 99.9389 129.697 100.446C130.098 100.869 130.674 101.728 130.921 102.327C131.527 103.64 131.928 104.922 132.278 106.215C132.966 108.789 133.553 111.343 134.025 113.938C134.488 116.523 134.91 119.097 135.156 121.775C135.269 123.119 134.55 123.192 133.686 123.212C132.812 123.223 132.123 123.212 132.072 122.003L132.082 122.013Z" fill="#0000E6"/>
<path id="Vector_15" d="M124.433 98.3152C124.618 96.5472 124.608 94.7482 124.341 93.0112C124.084 91.2845 123.518 89.5992 122.778 87.9243C122.048 86.2597 121.123 84.6468 120.064 83.1476C119.529 82.4032 118.994 81.6587 118.408 80.966C117.833 80.263 117.195 79.6219 116.65 78.8982C116.136 78.1538 116.332 77.8229 116.599 77.4817C116.856 77.1405 117.123 76.8303 118.038 77.3059C118.933 77.8229 119.611 78.588 120.29 79.3221C120.968 80.0562 121.585 80.8316 122.171 81.6381C123.333 83.251 124.392 84.9259 125.307 86.7043C126.222 88.4723 126.993 90.416 127.415 92.4529C127.836 94.4793 127.96 96.5472 127.846 98.584C127.846 98.646 127.826 98.7081 127.805 98.7701L127.497 99.9385L126.695 100.218C126.253 100.373 125.729 100.331 125.369 100.156C125.04 100 124.824 99.7834 124.7 99.6283C124.443 99.2871 124.443 98.9976 124.433 98.7598C124.454 98.2945 124.659 97.9637 124.875 97.7982C125.348 97.4881 125.615 97.8189 125.862 98.0464C125.924 98.1084 125.986 98.1704 126.047 98.2221C126.047 98.2221 126.047 98.2221 126.078 98.2428C126.099 98.2532 126.222 98.2635 126.253 98.2428C126.263 98.2428 126.222 98.2428 126.15 98.3049C126.068 98.3669 126.058 98.491 126.058 98.4082L124.443 98.4599C124.443 98.4599 124.433 98.3566 124.433 98.2945V98.3152Z" fill="#0000E6"/>
<path id="Vector_16" d="M19.9869 155.595C19.8944 148.378 19.4112 141.141 18.9794 133.914C18.4859 126.686 17.8484 119.47 17.1904 112.253C16.5119 105.036 15.7511 97.8401 15.0005 90.6337C14.2397 83.4376 13.3144 76.2518 12.2246 69.1178C11.6591 65.6231 12.0087 65.406 12.4816 65.3026C12.9546 65.1992 13.3555 65.2406 14.1369 68.7662C14.8977 72.3333 15.4015 75.9416 15.9567 79.5397C16.4707 83.1377 16.9642 86.7358 17.4166 90.3441C18.3419 97.5506 19.0719 104.778 19.7504 112.005C20.429 119.232 21.0048 126.469 21.5805 133.717C22.1974 140.955 22.6703 148.202 23.1124 155.481C23.2255 157.28 22.8657 158.221 22.6189 158.707C22.3413 159.193 22.0226 159.234 21.6525 159.245C21.2824 159.245 20.9636 159.224 20.6552 158.759C20.3879 158.283 19.9664 157.373 19.9766 155.605L19.9869 155.595Z" fill="#0000E6"/>
<path id="Vector_17" d="M161.785 24.2763L119.488 77.0165C117.761 79.1878 117.237 78.8983 116.692 78.464C116.157 78.0298 115.746 77.5749 117.473 75.4036L159.359 22.3222C161.045 20.1096 161.765 20.5645 162.361 21.0505C162.957 21.5364 163.554 22.1361 161.785 24.2763Z" fill="#0000E6"/>
<path id="Vector_18" d="M51.7352 116.574C51.3034 117.226 50.6146 117.722 49.8949 118.011C49.1752 118.301 48.4144 118.384 47.705 118.342C46.2862 118.27 44.929 117.577 44.0449 116.574C43.1709 115.633 42.6158 114.548 42.1942 113.483C41.783 112.407 41.5465 111.322 41.3306 110.267C41.2278 109.74 41.5774 109.626 42.0092 109.502C42.441 109.378 42.7905 109.295 42.9859 109.781C43.3663 110.764 43.7878 111.715 44.2196 112.594C44.6514 113.472 45.1655 114.269 45.7927 114.837C46.3684 115.385 47.0881 115.644 47.7872 115.623C48.1368 115.613 48.4452 115.499 48.692 115.344C48.9387 115.189 49.0929 114.982 49.278 114.775C49.3397 114.734 49.3602 114.682 49.4939 114.713C49.6173 114.734 49.7612 114.775 49.9051 114.827C50.193 114.92 50.4809 115.054 50.7893 115.22C51.1081 115.385 51.3856 115.52 51.6015 115.737C51.8175 115.954 51.9922 116.285 51.7352 116.585V116.574Z" fill="#0000E6"/>
<path id="Vector_19" d="M42.4308 121.744C42.5336 120.018 43.171 118.363 44.2814 116.999C44.4254 116.833 44.8469 117.185 45.3507 117.64C45.8647 118.084 46.276 118.456 46.1834 118.56C45.4638 119.48 45.0731 120.7 45.0011 121.889C45.0011 122.034 44.4151 122.023 43.7057 122.003C42.9963 121.982 42.4205 121.951 42.4308 121.744Z" fill="#0000E6"/>
<path id="Vector_20" d="M59.5585 106.235L52.4954 114C51.313 115.282 50.1615 116.606 48.9483 117.867C47.7249 119.118 46.5837 120.441 45.2985 121.63C44.6713 122.22 44.3115 121.93 43.89 121.548C43.4684 121.155 43.1497 120.824 43.6843 120.142C44.7536 118.746 45.9668 117.484 47.0977 116.151C48.2389 114.827 49.4418 113.555 50.6139 112.253L57.6874 104.498C57.9855 104.188 58.3454 104.219 58.5716 104.261C58.8183 104.333 59.0136 104.498 59.2398 104.705C59.4557 104.912 59.6511 105.098 59.7436 105.336C59.8156 105.553 59.867 105.915 59.5894 106.235H59.5585Z" fill="#0000E6"/>
<path id="Vector_21" d="M50.8203 117.639C49.1342 119.541 47.4069 121.402 45.9778 123.532C45.803 123.791 45.3712 123.532 44.8469 123.222C44.3225 122.902 43.9113 122.633 44.0758 122.333C45.4638 119.976 47.0882 117.691 49.2473 115.964C49.5146 115.747 49.8538 116.109 50.2754 116.574C50.6969 117.029 51.0259 117.412 50.81 117.639H50.8203Z" fill="#0000E6"/>
<path id="Vector_22" d="M140.307 137.087C140.986 139.496 141.068 142.123 140.533 144.521C139.989 146.93 139.073 149.122 137.871 151.128C136.637 153.196 135.023 155.057 133.244 156.546C131.465 158.045 129.574 159.244 127.774 160.506C126.89 161.126 126.53 160.671 126.119 160.082C125.708 159.493 125.42 158.996 126.314 158.376C128.124 157.114 129.903 155.853 131.465 154.478C132.247 153.785 132.956 153.051 133.583 152.265C134.2 151.469 134.683 150.58 135.105 149.66C135.938 147.737 136.709 145.803 136.997 143.86C137.305 141.926 137.233 140.003 136.657 138.163C136.596 137.935 136.596 137.749 136.657 137.573C136.688 137.491 136.729 137.408 136.781 137.336C136.894 137.243 137.017 137.149 137.12 137.077C137.336 136.932 137.47 136.839 137.665 136.746C137.799 136.674 137.963 136.612 138.128 136.55C138.292 136.488 138.457 136.426 138.601 136.395C138.806 136.343 138.971 136.322 139.228 136.312C139.351 136.312 139.505 136.312 139.66 136.312C139.752 136.343 139.834 136.395 139.917 136.457C140.071 136.591 140.246 136.777 140.307 137.077V137.087Z" fill="#0000E6"/>
<path id="Vector_23" d="M71.9573 212.874C72.5742 212.347 73.2117 211.83 73.8285 211.292L75.7203 209.741C77.0054 208.728 78.198 207.601 79.4524 206.536C81.9096 204.354 84.3154 202.121 86.6698 199.805C91.3991 195.215 95.892 190.376 100.354 185.506C104.806 180.626 109.124 175.611 113.288 170.473C117.441 165.334 121.503 160.103 125.389 154.747C126.283 153.382 126.921 152.803 127.363 152.565C127.805 152.338 128.072 152.472 128.35 152.658C128.627 152.845 128.854 153.031 128.812 153.527C128.761 154.023 128.463 154.85 127.527 156.205C123.929 161.85 120.043 167.299 115.982 172.603C111.91 177.907 107.705 183.097 103.336 188.163C98.9558 193.219 94.3293 198.058 89.5691 202.773C87.1941 205.13 84.7369 207.425 82.2283 209.658C80.9534 210.754 79.7299 211.912 78.4139 212.957C77.098 214.011 75.8539 215.149 74.4146 216.058C73.7154 216.513 73.1808 216.855 72.6976 217.01C72.2144 217.154 71.8545 217.216 71.5769 217.206C71.0115 217.185 70.7544 216.875 70.4974 216.503C70.2301 216.131 70.0245 215.79 70.1581 215.231C70.2301 214.962 70.3843 214.632 70.6516 214.208C70.9189 213.784 71.3713 213.381 71.9779 212.853L71.9573 212.874Z" fill="#0000E6"/>
<path id="Vector_24" d="M15.2769 173.688C14.3002 174.163 13.3749 174.722 12.4187 175.228L9.57084 176.8L3.88532 179.943C3.42267 180.201 3.05254 179.602 2.63101 178.847C2.1992 178.092 1.8702 177.472 2.33286 177.203L7.92584 173.884L10.7223 172.219C11.6476 171.651 12.6038 171.134 13.4983 170.534C13.9404 170.234 14.3413 170.906 14.8759 171.837C15.4106 172.767 15.7704 173.46 15.2872 173.688H15.2769Z" fill="#0000E6"/>
<path id="Vector_25" d="M73.2841 216.161C73.1916 218.28 72.8215 220.524 71.7317 222.654C71.1662 223.709 70.4157 224.701 69.4801 225.508C68.5445 226.314 67.4444 226.872 66.3443 227.265C64.1236 228.041 61.9234 228.082 59.826 227.948C57.7287 227.793 55.7238 227.389 53.7601 226.903C49.843 225.911 46.1109 224.536 42.461 223.037C38.7906 221.527 35.1819 219.769 31.7583 217.743C24.8904 213.69 18.6292 208.582 13.3343 202.586C10.6818 199.608 8.30683 196.351 6.19918 192.98C5.16078 191.316 4.09153 189.61 3.19706 187.738C2.3026 185.888 1.61375 183.841 1.38757 181.69C1.21279 179.56 1.56235 178.464 1.87078 177.958C2.17922 177.441 2.50822 177.482 2.85778 177.544C3.20734 177.606 3.51578 177.709 3.68028 178.226C3.82422 178.733 3.85506 179.653 4.0504 181.37C4.5439 184.885 6.55902 188.131 8.68723 191.368C10.7949 194.593 13.1184 197.623 15.6785 200.476C20.7985 206.163 26.8336 211.002 33.4444 214.827C36.755 216.75 40.1889 218.384 43.7565 219.811C47.3343 221.237 50.9533 222.53 54.6134 223.419C56.4435 223.853 58.2736 224.195 60.0728 224.319C61.8514 224.412 63.6404 224.329 65.1003 223.781C66.5911 223.254 67.6603 222.271 68.3492 220.907C69.0277 219.521 69.3362 217.815 69.367 216.027C69.3876 214.269 69.4698 213.307 69.7577 212.78C70.0558 212.253 70.5905 212.16 71.1765 212.098C71.7625 212.036 72.3074 212.005 72.6878 212.522C73.0374 213.028 73.387 214.062 73.2944 216.171L73.2841 216.161Z" fill="#0000E6"/>
<path id="Vector_26" d="M48.3214 225.508C42.6976 223.885 37.2177 221.683 32.0359 218.891C26.8542 216.1 22.0426 212.646 17.6319 208.78C13.2007 204.923 9.26302 200.56 5.61318 196.021C4.69815 194.863 3.84481 193.767 2.9195 192.526C1.98391 191.213 1.2231 189.756 0.729602 188.205C-0.267677 185.103 -0.236833 181.701 0.729602 178.682C1.23338 177.193 1.83997 176.583 2.24094 176.335C2.66247 176.087 2.99147 176.222 3.35131 176.397C3.71116 176.573 4.01959 176.749 4.13269 177.204C4.24578 177.648 4.19437 178.362 3.9065 179.602C3.27935 182.105 3.28963 184.72 4.13269 187.078C4.54394 188.256 5.11968 189.373 5.85993 190.397C6.66187 191.461 7.5769 192.63 8.4508 193.705C12.0287 198.089 15.8533 202.256 20.1097 205.905C24.3559 209.565 28.9413 212.802 33.8763 215.407C38.8112 218.023 44.0341 220.06 49.4215 221.59C52.0843 222.293 51.9198 223.379 51.6833 224.34C51.4469 225.302 51.087 226.336 48.3111 225.529L48.3214 225.508Z" fill="#0000E6"/>
<path id="Vector_27" d="M132.833 119.676C133.48 121.537 134.324 123.481 135.043 125.487C135.773 127.503 136.39 129.592 136.781 131.742C137.171 133.882 137.387 136.074 137.326 138.246C137.254 140.417 137.069 142.578 136.627 144.687C136.431 145.731 135.855 145.648 135.167 145.493C134.467 145.349 133.912 145.183 134.077 144.211C134.457 142.236 134.591 140.231 134.581 138.235C134.581 136.24 134.303 134.265 133.881 132.332C133.45 130.398 132.823 128.506 132.072 126.624C131.321 124.743 130.437 122.892 129.635 120.855C129.563 120.586 129.461 120.4 129.594 120.193C129.728 119.987 129.851 119.831 129.985 119.707C130.252 119.47 130.54 119.366 130.879 119.263C131.219 119.159 131.506 119.066 131.866 119.097C132.041 119.108 132.236 119.149 132.463 119.211C132.699 119.273 132.72 119.459 132.812 119.676H132.833Z" fill="#0000E6"/>
<path id="Vector_28" d="M124.351 97.3429C125.883 98.7594 127.312 100.217 128.422 101.923C129.553 103.608 130.468 105.439 131.095 107.362C131.712 109.285 132.113 111.28 132.195 113.276C132.288 115.271 132.226 117.277 131.887 119.221C131.743 120.193 131.167 120.11 130.468 119.975C129.769 119.841 129.203 119.696 129.337 118.828C129.656 117.039 129.687 115.23 129.584 113.451C129.471 111.663 129.059 109.926 128.484 108.261C127.887 106.607 127.085 105.025 126.026 103.629C125.502 102.936 124.937 102.264 124.31 101.665C124.011 101.355 123.682 101.065 123.353 100.786C123.045 100.486 122.665 100.269 122.305 100.041C121.935 99.8554 121.873 99.5762 122.048 99.1109C122.171 98.7181 122.336 98.4389 122.541 98.1287C122.747 97.8185 122.922 97.5497 123.251 97.3016C123.621 96.9811 123.96 96.9811 124.34 97.3326L124.351 97.3429Z" fill="#0000E6"/>
<path id="Vector_29" d="M41.9672 123.274C42.5532 120.783 43.1084 118.25 43.2215 115.665C43.3757 113.09 43.386 110.495 43.1804 107.9C42.8 102.699 41.6999 97.5712 40.5998 92.3085C40.4662 91.6468 40.3325 90.9954 40.2091 90.3131L39.8493 88.3589C39.5923 87.0976 39.2838 85.8155 38.9548 84.5438C38.2968 82.0003 37.536 79.4672 36.6827 76.9755C35.8293 74.4941 34.8937 72.023 33.7628 69.6864C32.6421 67.3497 31.3364 65.0854 29.7223 63.245C28.9615 62.2938 28.5399 61.9216 28.4371 61.4977C28.324 61.1048 28.4577 60.836 28.6428 60.5568C28.8278 60.2777 29.0026 60.0399 29.4344 60.0916C29.8251 60.164 30.6476 60.4535 31.5832 61.5184C33.5366 63.6483 34.8732 66.0883 36.1069 68.5284C37.3304 70.9788 38.3482 73.5015 39.2735 76.045C40.1988 78.5884 41.0213 81.1629 41.7513 83.7787C42.1214 85.0814 42.4607 86.3945 42.7589 87.7386L43.1598 89.7237C43.2832 90.3648 43.4374 91.0161 43.5711 91.6572C44.7431 96.8268 45.9975 102.141 46.5115 107.611C47.0359 113.08 46.748 118.642 45.8124 124.122C45.7096 124.453 45.5965 124.732 45.4937 124.98C45.3806 125.229 45.3086 125.446 45.103 125.59C44.7534 125.901 44.4964 126.107 44.3011 126.242C43.8795 126.5 43.5814 126.438 43.2421 126.345C42.9028 126.252 42.6149 126.149 42.3579 125.714C42.2345 125.508 42.1112 125.208 41.9364 124.784C41.8233 124.567 41.8541 124.36 41.8644 124.102C41.8747 123.853 41.9055 123.574 41.9569 123.264L41.9672 123.274Z" fill="#0000E6"/>
<path id="Vector_30" d="M165.569 24.0906L153.519 39.2375C149.489 44.2727 145.428 49.2872 141.336 54.2707C137.244 59.2542 133.09 64.1963 128.916 69.1178L122.614 76.469L116.188 83.7064C113.957 85.981 113.062 85.3503 112.034 84.4405C111.006 83.541 110.256 82.7242 112.178 80.2014L124.454 65.344C128.525 60.3812 132.556 55.377 136.575 50.3625C140.585 45.348 144.564 40.3024 148.512 35.2259C152.46 30.1597 156.377 25.0625 160.191 19.8929C162.073 17.3391 163.327 18.1662 164.88 19.3759C166.432 20.5856 167.553 21.5885 165.569 24.0699V24.0906Z" fill="#0000E6"/>
<path id="Vector_31" d="M160.531 20.3269C161.755 19.2413 162.999 18.073 163.718 16.6151C164.479 15.1883 164.983 13.6581 165.117 12.1176C165.25 10.577 164.983 9.04683 164.315 7.69239C163.657 6.33796 162.577 5.17997 161.22 4.30114C160.562 3.87723 160.942 3.02942 161.457 2.00584C161.971 0.982255 162.413 0.165459 163.389 0.713436C165.333 1.83007 167.08 3.48434 168.263 5.5315C169.455 7.57866 170.01 9.96702 169.99 12.2933C169.99 14.63 169.424 16.8943 168.52 18.9518C168.057 19.9754 167.543 20.9679 166.998 21.9605C166.402 22.9014 165.805 23.8732 165.076 24.7004C164.047 25.238 163.173 24.3385 162.115 23.2322C161.056 22.1259 160.233 21.1747 160.521 20.3372L160.531 20.3269Z" fill="#0000E6"/>
<path id="Vector_32" d="M24.1305 155.181C23.1024 157.032 22.3107 159.152 21.4677 161.261L19.0207 167.754C18.1982 169.946 17.3449 172.158 16.4093 174.371C15.4943 176.604 14.3736 178.786 12.9445 180.926C12.2146 181.991 11.1453 181.319 9.84989 180.45C8.55445 179.592 7.53661 178.848 7.99927 177.959C8.93486 176.098 9.69567 174.019 10.5387 171.951C11.3407 169.863 12.0912 167.702 12.8314 165.521L15.0727 158.883C15.8438 156.639 16.7177 154.416 17.6842 152.069C17.9515 151.501 18.3627 151.335 19.0105 151.49C19.6582 151.645 20.5012 152.08 21.4163 152.555C22.3416 153.041 23.1744 153.496 23.6781 153.92C24.1922 154.344 24.3464 154.726 24.1099 155.181H24.1305Z" fill="#0000E6"/>
<path id="Vector_33" d="M37.104 91.1707C37.0628 89.3717 36.9086 87.5416 36.7441 85.7116C36.6105 83.8712 36.3534 82.0412 36.045 80.2215C35.4384 76.5717 34.4822 72.9944 33.156 69.5721C31.8194 66.1808 30.1024 62.9137 27.7583 60.2978C26.5863 59.0054 25.2394 57.8888 23.7487 57.103C22.2579 56.3379 20.6437 55.8106 18.937 55.6762C17.2715 55.6555 17.1275 55.1386 17.0659 54.4045C16.9939 53.7118 16.9939 53.0707 19.0399 53.0397C21.1064 53.0294 23.2346 53.4946 25.0852 54.4665C26.9564 55.4074 28.5911 56.7205 29.9791 58.199C32.755 61.187 34.6673 64.723 36.1786 68.3314C37.6489 71.9708 38.749 75.7136 39.5715 79.5184C39.9827 81.4208 40.3014 83.3439 40.579 85.2773C40.836 87.2211 40.9286 89.1752 40.8772 91.1707C40.7538 93.1455 39.9004 93.1765 38.9237 93.1041C37.9265 93.0317 37.1656 92.9283 37.0731 91.1603L37.104 91.1707Z" fill="#0000E6"/>
<path id="Vector_34" d="M15.9358 158.251C16.2339 150.549 16.3881 142.846 16.4087 135.154C16.4292 127.461 16.3367 119.769 16.0591 112.087C15.7713 104.405 15.288 96.7435 14.5169 89.1132C13.7356 81.4829 12.7074 73.8836 11.1653 66.398C10.4353 62.7069 11.083 62.4071 11.7719 62.2416C12.4607 62.0762 13.1598 62.0452 14.0646 65.7776C17.406 80.9866 18.8351 96.4851 19.5959 111.952C19.9557 119.686 20.1305 127.43 20.1922 135.164L20.2333 158.344C20.1202 162.149 19.1743 162.263 18.0023 162.242C16.8405 162.222 15.8946 162.067 15.9255 158.262L15.9358 158.251Z" fill="#0000E6"/>
<path id="Vector_35" d="M135.125 23.9563C127.702 31.8968 120.31 39.889 112.938 47.8915C105.546 55.8837 98.2259 63.938 90.7926 71.8888L46.2235 119.646C42.5325 123.554 41.6586 122.985 40.7539 122.117C39.8491 121.238 39.2528 120.4 42.9232 116.513C57.8002 100.663 72.5023 84.5854 87.2456 68.5699C94.5966 60.5467 102.061 52.6269 109.474 44.6554L131.804 20.8028C135.506 16.905 136.38 17.4736 137.284 18.3421C138.189 19.2209 138.785 20.0584 135.125 23.9563Z" fill="#0000E6"/>
<path id="Vector_36" d="M119.776 100.921C119.776 100.528 119.796 100.135 119.745 99.7529C119.683 99.3703 119.827 98.9774 119.745 98.5845L119.632 97.4265L119.416 96.2789C119.076 94.7487 118.501 93.2495 117.73 91.7917C116.979 90.3339 116.033 88.907 114.954 87.563C114.388 86.9012 113.884 86.1775 113.309 85.5054C112.743 84.8127 112.106 84.182 111.52 83.479C110.944 82.7862 111.612 81.9074 112.486 80.8425C113.36 79.7775 114.08 78.9401 114.933 79.4674C115.786 80.005 116.568 80.6667 117.37 81.3077C118.151 81.9694 118.963 82.6312 119.662 83.4066C121.092 84.9368 122.418 86.6117 123.538 88.4831C124.649 90.3545 125.554 92.412 126.14 94.6039L126.52 96.2582L126.757 97.9435C126.89 99.0705 126.962 100.228 126.787 101.345C126.52 102.462 125.04 102.307 123.209 102.11C121.39 101.903 119.909 101.697 119.755 100.921H119.776Z" fill="#0000E6"/>
</g>
<path id="Vector_37" d="M153.128 1.77852C154.65 0.992746 156.305 0.393072 158.074 0.124253C159.832 -0.113549 161.693 -0.0515135 163.482 0.734266C163.934 0.94105 163.718 1.47869 163.348 2.037C162.968 2.59532 162.752 3.0916 162.484 2.95719C161.312 2.42989 159.822 2.33684 158.413 2.54363C156.984 2.76075 155.575 3.25703 154.229 3.94976C153.9 4.11518 153.622 3.63958 153.314 3.05025C152.995 2.46091 152.748 1.96463 153.128 1.77852Z" fill="#0000E6"/>
<path id="Vector_38" d="M92.6964 103.144C92.8815 102.761 93.1694 102.472 93.4367 102.161L94.2386 101.231L95.8425 99.3595L98.9988 95.5754C100.037 94.3037 101.106 93.0526 102.186 91.8223L103.841 89.9922L104.623 89.041C104.88 88.7205 105.126 88.3897 105.455 88.1312C106.083 87.6039 106.463 87.883 106.915 88.2553C107.368 88.6275 107.707 88.948 107.327 89.6717C107.152 90.0543 106.864 90.3541 106.607 90.6746L105.836 91.6362L104.386 93.6316C103.399 94.9447 102.392 96.2371 101.353 97.5192L98.2894 101.376L96.7883 103.33L96.0378 104.302C95.7808 104.622 95.5546 104.963 95.2256 105.222C94.6087 105.76 94.0741 105.356 93.4367 104.829C92.7992 104.302 92.2955 103.847 92.7067 103.144H92.6964Z" fill="#0000E6"/>
<path id="Vector_39" d="M126.129 103.981C125.43 103.144 124.526 102.617 123.528 102.523C123.035 102.472 122.521 102.523 122.058 102.679C121.595 102.813 121.153 103.133 121.05 103.289C121.071 103.268 120.526 103.092 119.889 102.906C119.262 102.72 118.706 102.513 119.035 101.924C119.734 100.993 120.506 100.642 121.297 100.363C122.089 100.104 122.932 100.021 123.754 100.104C124.577 100.187 125.399 100.445 126.119 100.849C126.818 101.272 127.476 101.789 127.959 102.399C128.216 102.699 127.795 103.04 127.26 103.454C126.726 103.868 126.294 104.188 126.119 103.992L126.129 103.981Z" fill="#0000E6"/>
<path id="Vector_40" d="M150.877 5.9966C148.049 8.2919 145.356 10.887 142.683 13.4615L134.694 21.2986C134.036 21.95 133.635 21.5778 133.162 21.1022C132.689 20.6162 132.34 20.2027 132.987 19.5616L140.996 11.7038C143.7 9.1087 146.394 6.51356 149.365 4.09418C150.116 3.50485 150.466 3.92876 150.877 4.4664C151.278 5.00403 151.576 5.45896 150.877 6.00694V5.9966Z" fill="#0000E6"/>
<path id="Vector_41" d="M147.175 10.7529L134.735 24.473C134.221 25.0313 133.799 24.6901 133.306 24.2352C132.812 23.7803 132.432 23.3874 132.936 22.8291L145.376 9.10895C145.89 8.55064 146.312 8.89183 146.805 9.34675C147.299 9.80168 147.679 10.1946 147.175 10.7529Z" fill="#0000E6"/>
</g>
<defs>
<clipPath id="clip0_4572_2669">
<rect width="170" height="228" fill="white"/>
</clipPath>
</defs>
</svg>
